<svg id="visual" viewBox="0 0 300 750" width="300" height="750" xmlns="http://www.w3.org/2000/svg" xmlns:xlink="http://www.w3.org/1999/xlink" version="1.1"><rect x="0" y="0" width="300" height="750" fill="#fbfbfe"></rect><defs><linearGradient id="grad1_0" x1="0%" y1="0%" x2="100%" y2="100%"><stop offset="30%" stop-color="#fbfbfe" stop-opacity="1"></stop><stop offset="70%" stop-color="#fbfbfe" stop-opacity="1"></stop></linearGradient></defs><defs><linearGradient id="grad2_0" x1="0%" y1="0%" x2="100%" y2="100%"><stop offset="30%" stop-color="#fbfbfe" stop-opacity="1"></stop><stop offset="70%" stop-color="#fbfbfe" stop-opacity="1"></stop></linearGradient></defs><g transform="translate(300, 0)"><path d="M0 270C-31.5 259.8 -63.1 249.7 -99.1 239.3C-135.1 228.9 -175.7 218.3 -190.9 190.9C-206.2 163.6 -196.1 119.6 -205.1 85C-214.1 50.4 -242 25.2 -270 0L0 0Z" fill="#242424"></path></g><g transform="translate(0, 750)"><path d="M0 -270C31.1 -258 62.1 -246 97.6 -235.6C133.1 -225.2 173 -216.4 190.9 -190.9C208.9 -165.5 204.8 -123.4 214.3 -88.8C223.9 -54.2 246.9 -27.1 270 0L0 0Z" fill="#242424"></path></g></svg>