<svg id="visual" viewBox="0 0 350 100" xmlns="http://www.w3.org/2000/svg" xmlns:xlink="http://www.w3.org/1999/xlink" version="1.1"><rect x="0" y="0" width="350" height="100" fill="#fbfbfe"></rect><defs><linearGradient id="grad1_0" x1="71.4%" y1="0%" x2="100%" y2="100%"><stop offset="-20%" stop-color="#fbfbfe" stop-opacity="1"></stop><stop offset="120%" stop-color="#fbfbfe" stop-opacity="1"></stop></linearGradient></defs><defs><linearGradient id="grad2_0" x1="0%" y1="0%" x2="28.6%" y2="100%"><stop offset="-20%" stop-color="#fbfbfe" stop-opacity="1"></stop><stop offset="120%" stop-color="#fbfbfe" stop-opacity="1"></stop></linearGradient></defs><g transform="translate(350, 0)"><path d="M0 90C-10.4 86 -20.8 82 -32.5 78.5C-44.2 75 -57.3 72 -63.6 63.6C-70 55.3 -69.7 41.7 -73 30.2C-76.3 18.7 -83.1 9.4 -90 0L0 0Z" fill="#3c1f6d"></path></g><g transform="translate(0, 100)"><path d="M0 -90C9.3 -82.7 18.6 -75.4 29.8 -72.1C41.1 -68.7 54.3 -69.4 63.6 -63.6C73 -57.9 78.5 -45.7 82.2 -34.1C86 -22.4 88 -11.2 90 0L0 0Z" fill="#3c1f6d"></path></g></svg>